<svg id="Capa_1" data-name="Capa 1" xmlns="http://www.w3.org/2000/svg" viewBox="0 0 500 500"><defs><style>.cls-1{fill:#fefe86;}.cls-2{fill:#941b80;}.cls-3{fill:#fff;}.cls-4{fill:#7c40a0;}</style></defs><path class="cls-1" d="M357.77,207.61a5.2,5.2,0,0,1-2.57-.68l-93.11-53.76a5.14,5.14,0,0,1-1.88-7l7.48-12.95a36.37,36.37,0,0,1,49.7-13.32l39,22.51a36.42,36.42,0,0,1,13.32,49.7l-7.47,13a5.11,5.11,0,0,1-3.12,2.39A5,5,0,0,1,357.77,207.61Z"/><path class="cls-2" d="M253.06,418.1a5.13,5.13,0,0,1-2.63-.72L129.35,345.27a5.14,5.14,0,0,1-1.76-7.09L247.72,141.75c2.13-3.68,6.46-5.6,12.8-5.6,13.49,0,36.9,8.67,61.09,22.64,15.95,9.2,30.07,19.49,39.76,29C372.94,199,376.93,208,373.25,214.37L257.51,415.53a5.16,5.16,0,0,1-3.15,2.41A5.26,5.26,0,0,1,253.06,418.1Z"/><path class="cls-3" d="M358.3,114.6a5.21,5.21,0,0,1-2.57-.69l-13.34-7.71a5.13,5.13,0,0,1-1.88-7l10.25-17.75a5.17,5.17,0,0,1,3.11-2.4,5.51,5.51,0,0,1,1.33-.17,5.08,5.08,0,0,1,2.57.69l13.35,7.7a5.15,5.15,0,0,1,1.88,7L362.74,112a5.16,5.16,0,0,1-4.44,2.57Z"/><circle cx="356.75" cy="96.73" r="4.31"/><path class="cls-4" d="M355.83,141.28a5.15,5.15,0,0,1-2.56-.69l-32.87-19a5.13,5.13,0,0,1-1.88-7l7-12.17a5.11,5.11,0,0,1,3.12-2.39,4.94,4.94,0,0,1,1.32-.18,5.18,5.18,0,0,1,2.57.69l32.87,19a5.14,5.14,0,0,1,1.88,7l-7,12.17a5.11,5.11,0,0,1-3.12,2.39A5,5,0,0,1,355.83,141.28Z"/><path class="cls-4" d="M244.92,421.13c-13.79,0-38.3-9.2-63.95-24-24.28-14-63-41.81-54.21-57.07,2.14-3.71,6.37-5.6,12.58-5.6,13.79,0,38.3,9.2,63.95,24,24.28,14,63,41.82,54.21,57.08C255.36,419.25,251.13,421.13,244.92,421.13Z"/><path d="M374.19,194.57a41.45,41.45,0,0,0-9.79-52.81c.11-.16.22-.31.32-.48l7-12.17a10.26,10.26,0,0,0-3.76-14s-.81-.47-.8-.49l10.25-17.75a10.25,10.25,0,0,0-3.76-14l-13.34-7.71a10.26,10.26,0,0,0-14,3.76L336.05,96.64l-.92-.53a10.27,10.27,0,0,0-14,3.75l-7,12.18c-.1.17-.19.35-.27.52a41.43,41.43,0,0,0-50.57,18.09l-.26.45c-.85,0-1.67-.09-2.45-.09-10.23,0-15,4.4-17.23,8.15-.48.77-1,1.54-1.42,2.32l-4,6.54-6.2,10.15q-4,6.57-8,13.13-4.74,7.74-9.47,15.49L203.63,204l-11.21,18.34L180.9,241.19q-5.73,9.34-11.44,18.7l-11,18-10.14,16.59q-4.47,7.31-8.93,14.6l-7.33,12-5.35,8.75c-2.44,4-5.14,7.87-6.14,12.52-2,9.43,5.73,18.84,11.8,25.11,1.14,1.18,2.31,2.32,3.49,3.45,10.46,10,25.57,20.91,42.53,30.71,26.39,15.23,51.88,24.7,66.52,24.7,4.07,0,8.65-.64,12-3.06,5.24-3.76,7.77-9.66,10.79-15.17,2.08-3.79,4.31-7.48,6.46-11.22l8.28-14.4,9.71-16.87,10.72-18.64,11.33-19.69,11.53-20,11.31-19.67,10.7-18.59,9.67-16.81,8.23-14.31,6.4-11.11,4.14-7.2,1.48-2.57C382.09,209.32,378.74,201.09,374.19,194.57ZM355.2,84l13.35,7.71L358.3,109.46,345,101.76ZM330,105l32.87,19-7,12.17-32.86-19Zm-30.76,15.15a31.16,31.16,0,0,1,15.6,4.19l39,22.5A31.24,31.24,0,0,1,367,186c-.75-.76-1.44-1.43-2-2-10-9.76-24.48-20.31-40.78-29.73C305.93,143.81,288,136.21,274,132.89A31.25,31.25,0,0,1,299.23,120.15ZM253.06,413c-1.19,2.06-4,3-8.14,3-12.33,0-36.15-8.75-61.38-23.32-33.65-19.43-57.08-41.84-52.34-50.06,1.19-2.06,4-3,8.14-3,12.33,0,36.15,8.75,61.38,23.32C234.38,382.34,257.81,404.75,253.06,413ZM368.8,211.81,260.72,399.65c-3.68-6.64-9.53-12.25-12.33-14.93-10.46-10-25.57-20.91-42.53-30.7-26.39-15.24-51.88-24.7-66.52-24.7H139L252.1,144.43c1.24-2.14,4.18-3.15,8.43-3.15,12.07,0,34.68,8.19,58.52,21.95C351.27,181.84,373.55,203.59,368.8,211.81Z"/><path class="cls-1" d="M272.17,230.46c-3-8.51-4.49-14.66-4.34-18.3s-.25-10.83-.78-11.72l-.16-.1c-.46-.3-1.87-.33-6.39.37-3.58.44-6.67,1-6.87,1.28-.55.85-.48,8,.26,13,.28,1.94-.57,10.41-1.86,16.5a171.17,171.17,0,0,1-5.79,21.54c-3,9.39-4,13.89-4.58,18.48-.36,3.29.24,8,1.1,8.52.39.25,8.08-.6,13.19-1.37.05-.08-.22-1.36-.44-2.71-1.12-4.9,0-10.55,4.46-24.6,1.33-3.76,2.33-7.18,2.58-7.57.15.1,2.21,5.94,4,11.57,1.9,6.07,3.94,16.19,4.1,20.36.64,8.88-.72,15.58-4.12,21.19A19.29,19.29,0,0,1,260,303.6c-1.6.95-2,1.11-3.57.77a19.25,19.25,0,0,1-5.73-2.71,18.82,18.82,0,0,1-4.48-3.77c-5.09-6.59-9.07-19.83-8.24-28.09a22.09,22.09,0,0,0,.18-3.84c-.39-.25-2.93-.24-9.8.7l-3.5.49-.41,2.16c-.72,3.49-.27,7.74.75,12.79,1.78,8,4.9,15.38,8.39,19.17a16.45,16.45,0,0,0,3.32,2.69l1.55,1c3.8,2.46,5.91,2.94,10,3.39,2.85.19,14.25-1.12,18.18-2.1a21.26,21.26,0,0,0,12.88-9.38,27.25,27.25,0,0,0,2.24-4.16c4.78-11.31,3.19-26.19-5.44-50.78C275.18,238.89,273.29,233.82,272.17,230.46Z"/></svg>