<svg id="Capa_1" data-name="Capa 1" xmlns="http://www.w3.org/2000/svg" xmlns:xlink="http://www.w3.org/1999/xlink" viewBox="0 0 500 500"><defs><style>.cls-1{fill:none;}.cls-2{fill:#fff;}.cls-3{isolation:isolate;}.cls-4{clip-path:url(#clip-path);}.cls-5{fill:#141414;}</style><clipPath id="clip-path"><polygon class="cls-1" points="375.53 274.75 375.62 226.17 432.9 218.12 432.81 266.7 375.53 274.75"/></clipPath></defs><path class="cls-2" d="M185.73,288.18a31.28,31.28,0,0,1,2,4c0,.28-9,9-9.73,9.27h-.19c-.56,0-1.11-.74-4.64-7.23-3.62-6.31-6.12-10.58-8.81-16.14L162,272.88l-3.43-7-5.1.28c-1.39.09-2.6.09-3.44.18-1,0-1.48.19-1.48.28a62.93,62.93,0,0,0-.37,8.07,149.36,149.36,0,0,1-1.39,19.2c-.19,1.21-1.49,3.06-5.57,6.86a54.92,54.92,0,0,1-5,4.36c-.75.37-1.21-.83-.65-1.67,2.13-3.89,2.13-30.05,1.48-34.69l-.19-1.94-3.8.09c-.93.09-4.45.28-4.64-.28l-.09-.09.19-.47c0-.37,1.67-2.87,3.61-5.65,2.6-4.18,3.62-5.29,4.18-5.29h.09a.09.09,0,0,0,.09-.09c.1,0-.27-7.15-1-15.68L134.35,228c-.93-10.85-2.32-20.86-3-23.09l-.09-.19c0-.83.74-1.57,4.82-5.19a67.46,67.46,0,0,1,5.2-4.73c.64,0,1.48,1,3.24,4.45,1.86,4,4.83,10.85,9.93,22.73,7.6,18.36,12.05,29,13.26,30.79l.19.28c.27.55.74.65,2,.55a3.92,3.92,0,0,1,2.59.28l.28.19a8.86,8.86,0,0,1-1.39,2.41l-1.3,1.85,3.62,7.89C177.2,273,182.77,283.73,185.73,288.18Zm-32.46-34a79.73,79.73,0,0,0-3-7.6c-.92-2.23-1.67-3.81-2.13-4.73-.28-.84-.74-1.21-.84-1.21-.37,0-.27,2.51.1,7.61l.46,6.3h2a20.13,20.13,0,0,0,2.6-.09C152.9,254.51,153.27,254.42,153.27,254.23Z"/><path class="cls-2" d="M231.83,278.07c.74,1.39,5.28,15,5.28,15.67,0,.47-1.39,1.86-4.63,4.55-2.6,2.22-4.83,4.08-5.2,4.36a.7.7,0,0,1-.46.09,8.73,8.73,0,0,1-2.69-.74c-3.9-1.49-15.12-5.38-21.8-7.42-4.36-1.3-6.58-1.86-8.9-1.86l-3.16-.37-4.82,4.08c-3.15,2.69-4.73,3.9-5.47,3.9-.37,0-.47-.28-.47-.84,0-.37-.09-.65-.37-.74a.55.55,0,0,1-.09-.37c0-.46.74-1.76,3.25-6,3.89-6.49,5.65-11.22,5.65-16.6a42.51,42.51,0,0,0-2.22-12.24c-2.41-8-8.63-23.1-16-39.24-3.43-7.69-6.3-14.56-6.3-15.3,0-.56,9.92-8.72,10.66-8.72.56,0,1,.74,1,1.21,0,.18,0,.28-.09.37V202c0,1,2.6,7,6.21,15,3.25,7.23,9.19,21.33,11.6,27.36,4.08,10.67,6.12,18.27,6.12,24.21a20,20,0,0,1-.65,5.38,54,54,0,0,1-4.54,10.48,4.25,4.25,0,0,0-.93,1.67,3,3,0,0,0,1.3-.93,12.3,12.3,0,0,1,6.95-2.13h.56c3.34,0,5.38.55,13.54,3.06a65.07,65.07,0,0,0,6.49,1.67v-.1a1.81,1.81,0,0,0-.27-.83A3,3,0,0,1,221,286c.28-.46,9.84-8.62,10.21-8.62C231.36,277.33,231.73,277.79,231.83,278.07Z"/><path class="cls-2" d="M284.12,199.65a1.08,1.08,0,0,1,.82.45c.09.09.09.09.09.37s-.82,1.63-4.07,4.8l-4.8,4.52-2.54.46c-4.8.81-14.67.9-35.23,1a38.15,38.15,0,0,0-4.34.27c0,1.09,1.63,10.6,2.71,15.67,3,12.5,6.43,24.54,10.15,35.23,2.08,6,9.78,23.63,11.5,26.53l1.26,2.17-4.52,4.53-4.71,4.71c-.09,0-.55-.82-1.27-1.72-1.63-2.17-10.14-21.55-13.13-30.16-1.36-4.07-3.71-11-4.89-15.66l-2.26-8.33L227,246a4.1,4.1,0,0,1-2.08,1.08c-.9,0-1-2.35-1.54-9.6-.36-5-1-11.86-1.36-15.12l-.63-5.89,1.18-.9a38.22,38.22,0,0,0,3.17-2.54l1.9-1.63-2.27-.18c-1.26,0-6.88-.18-12.31-.36-10.42,0-16.93-.18-20.65-.36-2.9-.09-4.16-.27-4.53-.55-.09-.09-.09-.09-.09-.27,0-.45,1-1.54,4.26-4.8l4.71-4.71,4.44.28c4.52.18,39.84.81,47.81.81h1.27c1.45,0,5.34-.09,8.78-.18,13.13-.09,21.64-.54,24.18-1.27A5.18,5.18,0,0,1,284.12,199.65Z"/><path class="cls-2" d="M298.88,259.11A92.71,92.71,0,0,1,300.33,274c0,5.44-.9,9.15-2.72,12-.9,1.36-10.05,9.05-11.77,10a4.67,4.67,0,0,1-2.44.54,7.23,7.23,0,0,1-2.63-.54c-7.7-2.81-18.2-20.29-25.63-43.2A120.73,120.73,0,0,1,249.89,232l-.91-5.44a6.83,6.83,0,0,1-.18-1.26,6.74,6.74,0,0,1,.64-2.45c.63-2.35.81-2.35,4.8-5.89,6.06-5.25,11.5-9.14,13.67-10a9,9,0,0,1,3.44-.63,10.1,10.1,0,0,1,5.16,1.27C285.84,212.57,295,233.67,298.88,259.11Zm-9.33,22.37a102.13,102.13,0,0,0-1.81-17.66c-5-28.07-15.48-48.26-25.17-48.26a7.34,7.34,0,0,0-2.17.36,6.47,6.47,0,0,0-.28,2.44,44.29,44.29,0,0,0,.64,7.07,118.29,118.29,0,0,0,5.07,19.65c5.43,16.48,11.59,28.7,17.93,36.31,1.72,2.08,4.89,4.8,5.43,4.8C289.46,286.19,289.55,284.11,289.55,281.48Z"/><path class="cls-2" d="M354.66,264.91a48.36,48.36,0,0,1,1.81,11.77q0,6.52-3,9.51c-2.17,2.17-9.32,8.15-10.59,8.69a6.07,6.07,0,0,1-2.54.46c-5.34,0-13-6.8-21.91-20.11l-2.72-4,.18,1.72c.28,2.26.55,8.42.55,12.4a31.4,31.4,0,0,1-.09,3.35L316,291l-4.71,4.07c-2.72,2.27-5.17,4.17-5.53,4.17a1.22,1.22,0,0,1-.9-.63,4.17,4.17,0,0,1-.28-.73c0-.18.28-.45.46-.72.54-.55.72-2.81.72-5.89a108.77,108.77,0,0,0-1.45-16c-1.9-10.23-8.15-32.87-15.75-56.78a35.68,35.68,0,0,1-1.36-5.07v-.18c.18-.09,2.44-2,5.07-4.16,3.44-2.81,4.35-3.72,5-3.72.18,0,.27.09.45.36s2.45,5.08,4.71,10.42c4.71,11.14,13.95,29.79,19,38.76a180.26,180.26,0,0,0,12.77,19.38c4.25,5.16,10.05,10.77,11.41,10.77.09,0,.18-.18.18-.18s.09-.36.09-.72a67,67,0,0,0-1.63-10.78c-2-7.61-9.06-27.8-16.12-45.55-4-10.14-6.34-15.39-7.25-15.76a.73.73,0,0,1-.63-.45c0-.54,9.78-8.69,10.32-8.69.28,0,1,.72,1.54,1.36C335.46,209.49,351.22,251.69,354.66,264.91Z"/><path class="cls-2" d="M136.3,266.38a27,27,0,0,1,.37,4.73,21.33,21.33,0,0,1-5.75,14.94c-2.78,3-11.68,10.29-14.19,11.68-3.71,1.86-5.75,2.6-10.29,2.6h-1.86a16.79,16.79,0,0,1-4.26-.46c-5-1.3-11.69-5.85-17.53-11.6-3.62-3.71-6.31-7-7.61-10.39l-.83-2L77,273.52c5.28-4.54,7.42-5.93,7.88-5.93a21.91,21.91,0,0,1,2,3.34c3.8,7.42,14.37,16.41,22.26,19.2a18.7,18.7,0,0,0,5.84.74,19.48,19.48,0,0,0,6.31-.84c1.48-.55,1.76-.92,2.59-2.59a19.28,19.28,0,0,0,1.86-9.18c-.19-6.59-2.69-13-8.07-20.13-2.41-3.43-9.65-10.85-14.56-14.93-4.55-3.81-9.46-7.61-9.65-7.61,0,.46,1,3.89,2,7.79,3.89,14.28,6,19.66,9.65,23.19.92,1,1.85,1.95,1.85,2C103,272,97,277,96.51,277c-1,0-4.08-3.62-5.56-6.59-2-4.17-3.62-8.53-6.22-18.09A171.74,171.74,0,0,0,77.87,231c-2.23-5.84-6.12-13.45-7.42-14.93-3.34-3.8-7.33-9.83-7.33-10.85,0-.37,2.32-2.51,5.1-4.82,3.44-3.07,4.64-3.81,5.2-3.81h.18c.93.47,5.2,6.22,7.05,9.46s6.49,7.52,13.64,13.08c2.78,2.23,7.14,5.47,9.74,7.42C124.71,242.55,134.17,254.23,136.3,266.38Z"/><polygon class="cls-2" points="370.7 279.24 370.81 223.21 436.88 213.92 436.77 269.95 370.7 279.24"/><g class="cls-3"><g class="cls-4"><polyline class="cls-5" points="384.75 224.89 375.62 226.17 375.53 274.75 389.19 272.83 389.21 265.75 384.67 266.39 384.75 224.89"/><polyline class="cls-5" points="399.81 222.77 390.68 224.06 390.59 272.63 399.72 271.35 399.81 222.77"/><polyline class="cls-5" points="416.36 220.45 401.53 222.53 401.44 271.11 410.57 269.82 410.6 251 415.24 250.35 415.25 243.74 410.62 244.39 410.65 227.96 416.34 227.16 416.36 220.45"/><polyline class="cls-5" points="432.8 218.13 417.84 220.24 417.75 268.81 432.81 266.7 432.82 260.16 427 260.98 427.03 245.94 431.56 245.3 431.57 240.23 427.04 240.87 427.06 225.65 432.79 224.85 432.8 218.13"/></g></g></svg>